<svg width="30" height="24" fill="none" xmlns="http://www.w3.org/2000/svg"><path fill-rule="evenodd" clip-rule="evenodd" d="M15 0c-4.074 0-4.584.014-6.184.072C3.37.272.341 2.69.091 7.052.018 8.333 0 8.741 0 12c0 3.259.018 3.668.09 4.948.25 4.358 3.272 6.78 8.725 6.98 1.601.058 2.111.072 6.185.072s4.585-.014 6.185-.072c5.443-.2 8.478-2.618 8.724-6.98.074-1.28.091-1.689.091-4.948 0-3.259-.017-3.667-.09-4.947-.245-4.354-3.271-6.78-8.724-6.98C19.585.014 19.074 0 15 0Zm0 2.163c4.005 0 4.48.012 6.063.07 4.065.148 5.963 1.691 6.148 4.919.073 1.265.087 1.645.087 4.849 0 3.205-.015 3.584-.087 4.849-.186 3.225-2.08 4.771-6.148 4.919-1.583.058-2.055.07-6.063.07-4.005 0-4.48-.012-6.061-.07-4.075-.149-5.964-1.699-6.149-4.92-.073-1.265-.088-1.644-.088-4.849 0-3.204.017-3.583.088-4.849.186-3.227 2.08-4.771 6.149-4.919 1.582-.057 2.056-.069 6.061-.069ZM7.298 12c0-3.403 3.448-6.162 7.702-6.162S22.703 8.597 22.703 12c0 3.404-3.45 6.163-7.703 6.163-4.254 0-7.702-2.76-7.702-6.163ZM15 16c-2.761 0-5-1.79-5-4 0-2.209 2.239-4 5-4s5 1.791 5 4c0 2.21-2.239 4-5 4Zm6.206-10.405c0-.795.806-1.44 1.802-1.44.993 0 1.798.645 1.798 1.44 0 .795-.805 1.44-1.799 1.44-.995 0-1.8-.645-1.8-1.44Z" fill="#252420"/></svg>